<?xml version="1.0" standalone="no"?>
<!DOCTYPE svg PUBLIC "-//W3C//DTD SVG 20010904//EN"
 "http://www.w3.org/TR/2001/REC-SVG-20010904/DTD/svg10.dtd">
<svg version="1.0" xmlns="http://www.w3.org/2000/svg"
 width="300.000000pt" height="300.000000pt" viewBox="0 0 300.000000 300.000000"
 preserveAspectRatio="xMidYMid meet">
<metadata>
Created by potrace 1.14, written by Peter Selinger 2001-2017
</metadata>
<g transform="translate(0.000000,300.000000) scale(0.100000,-0.100000)"
fill="#000000" stroke="none">
<path d="M1368 2995 c-1 -1 -30 -6 -63 -10 -494 -56 -947 -390 -1164 -857 -34
-72 -87 -219 -95 -259 -1 -8 -8 -39 -14 -69 -40 -188 -36 -471 9 -645 61 -236
176 -464 315 -625 97 -113 260 -252 374 -318 170 -100 379 -173 570 -201 67
-10 393 -7 444 4 194 42 283 72 431 145 288 143 535 394 674 683 71 149 120
313 139 462 14 109 6 413 -12 466 -3 8 -7 28 -10 44 -9 59 -48 182 -83 265
-209 490 -653 833 -1173 905 -49 7 -336 16 -342 10z"/>
</g>
</svg>
